<svg xmlns="http://www.w3.org/2000/svg" width="24" height="24" viewBox="0 0 24 24" fill="none">
  <path d="M20.317 4.369A19.791 19.791 0 0 0 15.607 3c-.224.405-.42.84-.581 1.285a18.593 18.593 0 0 0-5.652 0A11.916 11.916 0 0 0 8.793 3a19.747 19.747 0 0 0-4.71 1.369C1.159 7.658.174 11.806.67 15.893a19.92 19.92 0 0 0 5.818 2.938c.45-.615.843-1.265 1.162-1.953a12.752 12.752 0 0 1-1.842-.883c.155-.113.307-.228.455-.347a13.676 13.676 0 0 0 11.414 0c.148.119.3.234.455.347a12.752 12.752 0 0 1-1.842.883c.319.688.712 1.338 1.162 1.953a19.92 19.92 0 0 0 5.818-2.938c.496-4.087-.488-8.235-3.413-11.524zM8.072 15.107c-1.118 0-2.022-.945-2.022-2.11s.904-2.11 2.022-2.11c1.118 0 2.022.945 2.022 2.11s-.904 2.11-2.022 2.11zm7.856 0c-1.118 0-2.022-.945-2.022-2.11s.904-2.11 2.022-2.11c1.118 0 2.022.945 2.022 2.11s-.904 2.11-2.022 2.11z" fill="#5865F2"/>
</svg>
