<svg xmlns="http://www.w3.org/2000/svg" width="24" height="24" viewBox="0 0 24 24" fill="none">
  <defs>
    <linearGradient id="discordGradient" x1="0%" y1="0%" x2="100%" y2="100%">
      <stop offset="0%" style="stop-color:#7289DA;stop-opacity:1" />
      <stop offset="100%" style="stop-color:#4E5D94;stop-opacity:1" />
    </linearGradient>
    <filter id="shadow" x="-20%" y="-20%" width="140%" height="140%">
      <feDropShadow dx="0" dy="1" stdDeviation="1" flood-color="#000000" flood-opacity="0.3"/>
    </filter>
  </defs>
  <path d="M19.5 4.5A20.5 20.5 0 0 0 15 3.2c-.25.45-.47.93-.65 1.43a19 19 0 0 0-5.7 0c-.18-.5-.4-1-.65-1.43A20.5 20.5 0 0 0 4.5 4.5C1.5 8 0.5 12.5 1 16.5a20 20 0 0 0 5.5 3c.5-.7.95-1.4 1.3-2.2a13 13 0 0 1-1.9-.95c.17-.12.33-.25.5-.38a14 14 0 0 0 11.2 0c.17.13.33.26.5.38a13 13 0 0 1-1.9.95c.35.8.8 1.5 1.3 2.2a20 20 0 0 0 5.5-3c.5-4-0.5-8.5-3.5-12zM8.5 15.5c-1.2 0-2.2-1-2.2-2.2s1-2.2 2.2-2.2 2.2 1 2.2 2.2-1 2.2-2.2 2.2zm7 0c-1.2 0-2.2-1-2.2-2.2s1-2.2 2.2-2.2 2.2 1 2.2 2.2-1 2.2-2.2 2.2z" 
    fill="url(#discordGradient)" 
    filter="url(#shadow)"/>
</svg>
